<svg width="1440" height="3291" viewBox="0 0 1440 3291" fill="none" xmlns="http://www.w3.org/2000/svg">
<path d="M1549.41 2124.43C1483.24 2115.86 1258.99 2058.77 1239 1973.5" stroke="#96C4A3" stroke-width="40"/>
<path d="M327.506 1594C439.806 1824.7 1167.89 1745.27 1240.39 1977.79" stroke="#96C4A3" stroke-width="40"/>
<path d="M0 106C66 97.125 202.6 60.7 221 -14" stroke="#96C4A3" stroke-width="40"/>
<path d="M1329.27 -25.7352C1340.4 25.712 1450.44 73.8018 1500.91 79.7324" stroke="#96C4A3" stroke-width="40"/>
<path d="M373 288C360.672 238.734 277.735 63.0062 178 49.8116" stroke="#96C4A3" stroke-width="40"/>
<path d="M-7.49999 481.431C58.6746 472.865 297.508 453.067 317.5 367.793" stroke="#96C4A3" stroke-width="40"/>
<path d="M474 654C462.728 597.16 394.831 420.965 295.401 403.376" stroke="#96C4A3" stroke-width="40"/>
<path d="M1228.98 -10.9999C1116.68 219.696 388.588 140.266 316.091 372.795" stroke="#96C4A3" stroke-width="40"/>
<path d="M328.5 1596.5C286 1488 184.5 562.999 -22.9999 881.499C64.9999 615.5 531.5 830.999 472 644.999" stroke="#96C4A3" stroke-width="40"/>
<path d="M1186.5 37.0001C1286.88 52.4134 1351.32 224.267 1452 232.5" stroke="#96C4A3" stroke-width="40"/>
<path d="M-238.5 2310C-172.5 2301.13 -35.9 2264.7 -17.5 2190" stroke="#96C4A3" stroke-width="40"/>
<path d="M229.569 2492C218.457 2442.73 42.3982 2254.69 -47.5 2241.5" stroke="#96C4A3" stroke-width="40"/>
<path d="M-113.402 2685.43C-53.7538 2676.87 161.523 2657.07 179.543 2571.79" stroke="#96C4A3" stroke-width="40"/>
<path d="M320.607 2858C310.447 2801.16 249.247 2624.97 159.623 2607.38" stroke="#96C4A3" stroke-width="40"/>
<path d="M1245.5 1998.5C1141.83 2112.01 243.637 2344.33 178.273 2576.86" stroke="#96C4A3" stroke-width="40"/>
<path d="M-36 3285C43.3202 3019 372.436 3035 318.805 2849" stroke="#96C4A3" stroke-width="40"/>
<g clip-path="url(#clip0_404_959)">
<path d="M0 106C66 97.125 202.6 60.7 221 -14" stroke="#96C4A3" stroke-width="40"/>
<path d="M1329.27 -25.7352C1340.4 25.712 1450.44 73.8018 1500.91 79.7324" stroke="#96C4A3" stroke-width="40"/>
<path d="M373 288C360.672 238.734 277.735 63.0062 178 49.8116" stroke="#96C4A3" stroke-width="40"/>
<path d="M1228.98 -10.9999C1116.68 219.696 388.588 140.266 316.091 372.795" stroke="#96C4A3" stroke-width="40"/>
<path d="M1186.5 37.0001C1286.88 52.4134 1351.32 224.267 1452 232.5" stroke="#96C4A3" stroke-width="40"/>
</g>
<defs>
<clipPath id="clip0_404_959">
<rect width="1440" height="122" fill="white"/>
</clipPath>
</defs>
</svg>
