<svg width="731" height="80" viewBox="0 0 731 80" fill="none" xmlns="http://www.w3.org/2000/svg">
<path d="M333.676 0L0 15L28.8664 71.3382L116.153 77L251.931 71.3382L479.153 77H731L723 13.5882L333.676 0Z" fill="#F8F4EB"/>
<path d="M84.2868 39.256C84.2868 36.76 84.8028 34.54 85.8348 32.596C86.8908 30.628 88.3788 29.104 90.2988 28.024C92.2188 26.92 94.4268 26.368 96.9228 26.368C100.091 26.368 102.755 27.22 104.915 28.924C107.075 30.604 108.467 32.896 109.091 35.8H101.495C101.039 34.84 100.403 34.108 99.5868 33.604C98.7948 33.1 97.8708 32.848 96.8148 32.848C95.1828 32.848 93.8748 33.436 92.8908 34.612C91.9308 35.764 91.4508 37.312 91.4508 39.256C91.4508 41.224 91.9308 42.796 92.8908 43.972C93.8748 45.124 95.1828 45.7 96.8148 45.7C97.8708 45.7 98.7948 45.448 99.5868 44.944C100.403 44.44 101.039 43.708 101.495 42.748H109.091C108.467 45.652 107.075 47.956 104.915 49.66C102.755 51.34 100.091 52.18 96.9228 52.18C94.4268 52.18 92.2188 51.64 90.2988 50.56C88.3788 49.456 86.8908 47.932 85.8348 45.988C84.8028 44.02 84.2868 41.776 84.2868 39.256ZM121.828 52.252C119.812 52.252 118 51.832 116.392 50.992C114.808 50.152 113.56 48.952 112.648 47.392C111.736 45.832 111.28 43.996 111.28 41.884C111.28 39.796 111.736 37.972 112.648 36.412C113.584 34.852 114.844 33.652 116.428 32.812C118.036 31.972 119.848 31.552 121.864 31.552C123.88 31.552 125.68 31.972 127.264 32.812C128.872 33.652 130.132 34.852 131.044 36.412C131.98 37.972 132.448 39.796 132.448 41.884C132.448 43.972 131.98 45.808 131.044 47.392C130.132 48.952 128.872 50.152 127.264 50.992C125.656 51.832 123.844 52.252 121.828 52.252ZM121.828 46.132C122.812 46.132 123.628 45.772 124.276 45.052C124.948 44.308 125.284 43.252 125.284 41.884C125.284 40.516 124.948 39.472 124.276 38.752C123.628 38.032 122.824 37.672 121.864 37.672C120.904 37.672 120.1 38.032 119.452 38.752C118.804 39.472 118.48 40.516 118.48 41.884C118.48 43.276 118.792 44.332 119.416 45.052C120.04 45.772 120.844 46.132 121.828 46.132ZM161.707 31.624C164.251 31.624 166.243 32.392 167.683 33.928C169.147 35.464 169.879 37.564 169.879 40.228V52H162.823V41.164C162.823 40.084 162.523 39.244 161.923 38.644C161.323 38.044 160.507 37.744 159.475 37.744C158.443 37.744 157.627 38.044 157.027 38.644C156.427 39.244 156.127 40.084 156.127 41.164V52H149.071V41.164C149.071 40.084 148.771 39.244 148.171 38.644C147.595 38.044 146.791 37.744 145.759 37.744C144.703 37.744 143.875 38.044 143.275 38.644C142.675 39.244 142.375 40.084 142.375 41.164V52H135.319V31.804H142.375V34.468C142.999 33.604 143.803 32.92 144.787 32.416C145.795 31.888 146.947 31.624 148.243 31.624C149.731 31.624 151.051 31.948 152.203 32.596C153.379 33.244 154.303 34.156 154.975 35.332C155.695 34.228 156.643 33.34 157.819 32.668C158.995 31.972 160.291 31.624 161.707 31.624ZM183.141 52.252C181.125 52.252 179.313 51.832 177.705 50.992C176.121 50.152 174.873 48.952 173.961 47.392C173.049 45.832 172.593 43.996 172.593 41.884C172.593 39.796 173.049 37.972 173.961 36.412C174.897 34.852 176.157 33.652 177.741 32.812C179.349 31.972 181.161 31.552 183.177 31.552C185.193 31.552 186.993 31.972 188.577 32.812C190.185 33.652 191.445 34.852 192.357 36.412C193.293 37.972 193.761 39.796 193.761 41.884C193.761 43.972 193.293 45.808 192.357 47.392C191.445 48.952 190.185 50.152 188.577 50.992C186.969 51.832 185.157 52.252 183.141 52.252ZM183.141 46.132C184.125 46.132 184.941 45.772 185.589 45.052C186.261 44.308 186.597 43.252 186.597 41.884C186.597 40.516 186.261 39.472 185.589 38.752C184.941 38.032 184.137 37.672 183.177 37.672C182.217 37.672 181.413 38.032 180.765 38.752C180.117 39.472 179.793 40.516 179.793 41.884C179.793 43.276 180.105 44.332 180.729 45.052C181.353 45.772 182.157 46.132 183.141 46.132ZM212.918 52.252C210.902 52.252 209.09 51.832 207.482 50.992C205.898 50.152 204.65 48.952 203.738 47.392C202.826 45.832 202.37 43.996 202.37 41.884C202.37 39.796 202.826 37.972 203.738 36.412C204.674 34.852 205.934 33.652 207.518 32.812C209.126 31.972 210.938 31.552 212.954 31.552C214.97 31.552 216.77 31.972 218.354 32.812C219.962 33.652 221.222 34.852 222.134 36.412C223.07 37.972 223.538 39.796 223.538 41.884C223.538 43.972 223.07 45.808 222.134 47.392C221.222 48.952 219.962 50.152 218.354 50.992C216.746 51.832 214.934 52.252 212.918 52.252ZM212.918 46.132C213.902 46.132 214.718 45.772 215.366 45.052C216.038 44.308 216.374 43.252 216.374 41.884C216.374 40.516 216.038 39.472 215.366 38.752C214.718 38.032 213.914 37.672 212.954 37.672C211.994 37.672 211.19 38.032 210.542 38.752C209.894 39.472 209.57 40.516 209.57 41.884C209.57 43.276 209.882 44.332 210.506 45.052C211.13 45.772 211.934 46.132 212.918 46.132ZM250.111 26.62V43.432C250.111 46.288 249.331 48.472 247.771 49.984C246.235 51.496 244.111 52.252 241.399 52.252C238.519 52.252 236.215 51.448 234.487 49.84C232.783 48.232 231.931 45.916 231.931 42.892H238.915C238.939 44.884 239.671 45.88 241.111 45.88C242.407 45.88 243.055 45.064 243.055 43.432V26.62H250.111ZM263.719 52.252C261.703 52.252 259.891 51.832 258.283 50.992C256.699 50.152 255.451 48.952 254.539 47.392C253.627 45.832 253.171 43.996 253.171 41.884C253.171 39.796 253.627 37.972 254.539 36.412C255.475 34.852 256.735 33.652 258.319 32.812C259.927 31.972 261.739 31.552 263.755 31.552C265.771 31.552 267.571 31.972 269.155 32.812C270.763 33.652 272.023 34.852 272.935 36.412C273.871 37.972 274.339 39.796 274.339 41.884C274.339 43.972 273.871 45.808 272.935 47.392C272.023 48.952 270.763 50.152 269.155 50.992C267.547 51.832 265.735 52.252 263.719 52.252ZM263.719 46.132C264.703 46.132 265.519 45.772 266.167 45.052C266.839 44.308 267.175 43.252 267.175 41.884C267.175 40.516 266.839 39.472 266.167 38.752C265.519 38.032 264.715 37.672 263.755 37.672C262.795 37.672 261.991 38.032 261.343 38.752C260.695 39.472 260.371 40.516 260.371 41.884C260.371 43.276 260.683 44.332 261.307 45.052C261.931 45.772 262.735 46.132 263.719 46.132ZM297.873 31.804V52H290.781V49.12C290.181 50.032 289.353 50.776 288.297 51.352C287.241 51.904 286.029 52.18 284.661 52.18C282.309 52.18 280.449 51.412 279.081 49.876C277.737 48.316 277.065 46.204 277.065 43.54V31.804H284.085V42.64C284.085 43.792 284.385 44.704 284.985 45.376C285.609 46.024 286.425 46.348 287.433 46.348C288.465 46.348 289.281 46.024 289.881 45.376C290.481 44.704 290.781 43.792 290.781 42.64V31.804H297.873ZM308.945 35.368C309.737 34.216 310.697 33.304 311.825 32.632C312.953 31.96 314.165 31.624 315.461 31.624V39.148H313.481C311.945 39.148 310.805 39.448 310.061 40.048C309.317 40.648 308.945 41.692 308.945 43.18V52H301.889V31.804H308.945V35.368ZM331.203 31.624C333.531 31.624 335.379 32.404 336.747 33.964C338.115 35.5 338.799 37.588 338.799 40.228V52H331.743V41.164C331.743 40.012 331.443 39.112 330.843 38.464C330.243 37.792 329.439 37.456 328.431 37.456C327.375 37.456 326.547 37.792 325.947 38.464C325.347 39.112 325.047 40.012 325.047 41.164V52H317.991V31.804H325.047V34.684C325.671 33.772 326.511 33.04 327.567 32.488C328.623 31.912 329.835 31.624 331.203 31.624ZM361.966 41.668C361.966 42.22 361.93 42.772 361.858 43.324H348.502C348.574 44.428 348.874 45.256 349.402 45.808C349.954 46.336 350.65 46.6 351.49 46.6C352.666 46.6 353.506 46.072 354.01 45.016H361.534C361.222 46.408 360.61 47.656 359.698 48.76C358.81 49.84 357.682 50.692 356.314 51.316C354.946 51.94 353.434 52.252 351.778 52.252C349.786 52.252 348.01 51.832 346.45 50.992C344.914 50.152 343.702 48.952 342.814 47.392C341.95 45.832 341.518 43.996 341.518 41.884C341.518 39.772 341.95 37.948 342.814 36.412C343.678 34.852 344.878 33.652 346.414 32.812C347.974 31.972 349.762 31.552 351.778 31.552C353.77 31.552 355.534 31.96 357.07 32.776C358.606 33.592 359.806 34.768 360.67 36.304C361.534 37.816 361.966 39.604 361.966 41.668ZM354.766 39.904C354.766 39.04 354.478 38.368 353.902 37.888C353.326 37.384 352.606 37.132 351.742 37.132C350.878 37.132 350.17 37.372 349.618 37.852C349.066 38.308 348.706 38.992 348.538 39.904H354.766ZM386.598 31.804L373.782 61.612H366.114L370.938 51.136L362.658 31.804H370.506L374.754 43.252L378.858 31.804H386.598ZM414.63 41.668C414.63 42.22 414.594 42.772 414.522 43.324H401.166C401.238 44.428 401.538 45.256 402.066 45.808C402.618 46.336 403.314 46.6 404.154 46.6C405.33 46.6 406.17 46.072 406.674 45.016H414.198C413.886 46.408 413.274 47.656 412.362 48.76C411.474 49.84 410.346 50.692 408.978 51.316C407.61 51.94 406.098 52.252 404.442 52.252C402.45 52.252 400.674 51.832 399.114 50.992C397.578 50.152 396.366 48.952 395.478 47.392C394.614 45.832 394.182 43.996 394.182 41.884C394.182 39.772 394.614 37.948 395.478 36.412C396.342 34.852 397.542 33.652 399.078 32.812C400.638 31.972 402.426 31.552 404.442 31.552C406.434 31.552 408.198 31.96 409.734 32.776C411.27 33.592 412.47 34.768 413.334 36.304C414.198 37.816 414.63 39.604 414.63 41.668ZM407.43 39.904C407.43 39.04 407.142 38.368 406.566 37.888C405.99 37.384 405.27 37.132 404.406 37.132C403.542 37.132 402.834 37.372 402.282 37.852C401.73 38.308 401.37 38.992 401.202 39.904H407.43ZM430.73 31.624C433.058 31.624 434.906 32.404 436.274 33.964C437.642 35.5 438.326 37.588 438.326 40.228V52H431.27V41.164C431.27 40.012 430.97 39.112 430.37 38.464C429.77 37.792 428.966 37.456 427.958 37.456C426.902 37.456 426.074 37.792 425.474 38.464C424.874 39.112 424.574 40.012 424.574 41.164V52H417.518V31.804H424.574V34.684C425.198 33.772 426.038 33.04 427.094 32.488C428.15 31.912 429.362 31.624 430.73 31.624ZM450.802 52.252C448.978 52.252 447.346 51.952 445.906 51.352C444.49 50.728 443.362 49.888 442.522 48.832C441.706 47.752 441.25 46.54 441.154 45.196H447.994C448.09 45.844 448.39 46.348 448.894 46.708C449.398 47.068 450.022 47.248 450.766 47.248C451.342 47.248 451.798 47.128 452.134 46.888C452.47 46.648 452.638 46.336 452.638 45.952C452.638 45.448 452.362 45.076 451.81 44.836C451.258 44.596 450.346 44.332 449.074 44.044C447.634 43.756 446.434 43.432 445.474 43.072C444.514 42.712 443.674 42.124 442.954 41.308C442.258 40.492 441.91 39.388 441.91 37.996C441.91 36.796 442.234 35.716 442.882 34.756C443.53 33.772 444.478 32.992 445.726 32.416C446.998 31.84 448.522 31.552 450.298 31.552C452.938 31.552 455.014 32.2 456.526 33.496C458.038 34.792 458.914 36.496 459.154 38.608H452.782C452.662 37.96 452.374 37.468 451.918 37.132C451.486 36.772 450.898 36.592 450.154 36.592C449.578 36.592 449.134 36.7 448.822 36.916C448.534 37.132 448.39 37.432 448.39 37.816C448.39 38.296 448.666 38.668 449.218 38.932C449.77 39.172 450.658 39.424 451.882 39.688C453.346 40 454.558 40.348 455.518 40.732C456.502 41.116 457.354 41.74 458.074 42.604C458.818 43.444 459.19 44.596 459.19 46.06C459.19 47.236 458.842 48.292 458.146 49.228C457.474 50.164 456.502 50.908 455.23 51.46C453.982 51.988 452.506 52.252 450.802 52.252ZM466.223 29.932C464.975 29.932 463.967 29.596 463.199 28.924C462.455 28.228 462.083 27.364 462.083 26.332C462.083 25.276 462.455 24.4 463.199 23.704C463.967 23.008 464.975 22.66 466.223 22.66C467.447 22.66 468.431 23.008 469.175 23.704C469.943 24.4 470.327 25.276 470.327 26.332C470.327 27.364 469.943 28.228 469.175 28.924C468.431 29.596 467.447 29.932 466.223 29.932ZM469.715 31.804V52H462.659V31.804H469.715ZM486.945 31.624C489.273 31.624 491.121 32.404 492.489 33.964C493.857 35.5 494.541 37.588 494.541 40.228V52H487.485V41.164C487.485 40.012 487.185 39.112 486.585 38.464C485.985 37.792 485.181 37.456 484.173 37.456C483.117 37.456 482.289 37.792 481.689 38.464C481.089 39.112 480.789 40.012 480.789 41.164V52H473.733V31.804H480.789V34.684C481.413 33.772 482.253 33.04 483.309 32.488C484.365 31.912 485.577 31.624 486.945 31.624ZM497.26 41.884C497.26 39.796 497.632 37.972 498.376 36.412C499.144 34.852 500.176 33.652 501.472 32.812C502.792 31.972 504.256 31.552 505.864 31.552C507.256 31.552 508.456 31.828 509.464 32.38C510.472 32.932 511.252 33.676 511.804 34.612V31.804H518.86V52H511.804V49.192C511.252 50.128 510.46 50.872 509.428 51.424C508.42 51.976 507.232 52.252 505.864 52.252C504.256 52.252 502.792 51.832 501.472 50.992C500.176 50.152 499.144 48.952 498.376 47.392C497.632 45.808 497.26 43.972 497.26 41.884ZM511.804 41.884C511.804 40.588 511.444 39.568 510.724 38.824C510.028 38.08 509.164 37.708 508.132 37.708C507.076 37.708 506.2 38.08 505.504 38.824C504.808 39.544 504.46 40.564 504.46 41.884C504.46 43.18 504.808 44.212 505.504 44.98C506.2 45.724 507.076 46.096 508.132 46.096C509.164 46.096 510.028 45.724 510.724 44.98C511.444 44.236 511.804 43.204 511.804 41.884ZM539.168 52.252C537.152 52.252 535.34 51.832 533.732 50.992C532.148 50.152 530.9 48.952 529.988 47.392C529.076 45.832 528.62 43.996 528.62 41.884C528.62 39.796 529.076 37.972 529.988 36.412C530.924 34.852 532.184 33.652 533.768 32.812C535.376 31.972 537.188 31.552 539.204 31.552C541.22 31.552 543.02 31.972 544.604 32.812C546.212 33.652 547.472 34.852 548.384 36.412C549.32 37.972 549.788 39.796 549.788 41.884C549.788 43.972 549.32 45.808 548.384 47.392C547.472 48.952 546.212 50.152 544.604 50.992C542.996 51.832 541.184 52.252 539.168 52.252ZM539.168 46.132C540.152 46.132 540.968 45.772 541.616 45.052C542.288 44.308 542.624 43.252 542.624 41.884C542.624 40.516 542.288 39.472 541.616 38.752C540.968 38.032 540.164 37.672 539.204 37.672C538.244 37.672 537.44 38.032 536.792 38.752C536.144 39.472 535.82 40.516 535.82 41.884C535.82 43.276 536.132 44.332 536.756 45.052C537.38 45.772 538.184 46.132 539.168 46.132ZM572.221 26.224C573.157 26.224 574.165 26.38 575.245 26.692C576.349 26.98 577.369 27.412 578.305 27.988H578.341L578.305 26.476H581.077L580.645 34.864H578.269C578.053 32.872 577.465 31.348 576.505 30.292C575.545 29.212 574.225 28.672 572.545 28.672C571.297 28.672 570.181 28.96 569.197 29.536C568.237 30.112 567.421 30.904 566.749 31.912C566.077 32.896 565.549 34.012 565.165 35.26C564.805 36.484 564.589 37.744 564.517 39.04C564.421 41.104 564.625 42.952 565.129 44.584C565.657 46.192 566.461 47.464 567.541 48.4C568.645 49.336 570.001 49.816 571.609 49.84C573.049 49.864 574.549 49.528 576.109 48.832C577.669 48.112 579.061 46.96 580.285 45.376L581.689 46.816C580.441 48.424 579.145 49.648 577.801 50.488C576.481 51.304 575.197 51.856 573.949 52.144C572.701 52.432 571.573 52.576 570.565 52.576C568.717 52.576 567.049 52.252 565.561 51.604C564.097 50.932 562.849 50.02 561.817 48.868C560.785 47.692 560.017 46.336 559.513 44.8C559.009 43.24 558.805 41.56 558.901 39.76C558.997 38.128 559.345 36.508 559.945 34.9C560.569 33.292 561.433 31.84 562.537 30.544C563.665 29.224 565.033 28.18 566.641 27.412C568.273 26.62 570.133 26.224 572.221 26.224ZM594.881 26.728C597.737 26.704 599.969 27.244 601.577 28.348C603.209 29.428 603.893 31.072 603.629 33.28C603.557 33.976 603.317 34.66 602.909 35.332C602.501 35.98 601.913 36.568 601.145 37.096C600.401 37.624 599.453 38.044 598.301 38.356V38.392C600.653 38.776 602.345 39.58 603.377 40.804C604.433 42.004 604.925 43.348 604.853 44.836C604.781 46.396 604.337 47.716 603.521 48.796C602.729 49.852 601.661 50.656 600.317 51.208C598.997 51.736 597.497 52 595.817 52H583.649L583.793 49.624C584.321 49.6 584.777 49.528 585.161 49.408C585.545 49.288 585.845 49.012 586.061 48.58C586.301 48.148 586.445 47.452 586.493 46.492L587.213 32.704C587.261 32.056 587.309 31.432 587.357 30.832C587.429 30.232 587.489 29.776 587.537 29.464C587.153 29.488 586.673 29.512 586.097 29.536C585.521 29.536 585.101 29.548 584.837 29.572L584.981 26.8C586.637 26.776 588.281 26.764 589.913 26.764C591.569 26.764 593.225 26.752 594.881 26.728ZM594.845 40.372C594.245 40.372 593.729 40.372 593.297 40.372C592.865 40.372 592.409 40.384 591.929 40.408L591.641 46.276C591.617 46.924 591.569 47.536 591.497 48.112C591.425 48.688 591.365 49.132 591.317 49.444C591.749 49.444 592.157 49.444 592.541 49.444C592.925 49.444 593.309 49.444 593.693 49.444C594.077 49.42 594.461 49.408 594.845 49.408C596.309 49.336 597.389 48.868 598.085 48.004C598.805 47.14 599.201 46.048 599.273 44.728C599.345 43.624 599.165 42.76 598.733 42.136C598.325 41.488 597.773 41.032 597.077 40.768C596.381 40.504 595.637 40.372 594.845 40.372ZM594.629 29.248C594.245 29.248 593.885 29.308 593.549 29.428C593.213 29.548 592.937 29.824 592.721 30.256C592.529 30.664 592.409 31.336 592.361 32.272L592.073 37.852C592.385 37.852 592.697 37.852 593.009 37.852C593.321 37.828 593.633 37.816 593.945 37.816C594.977 37.792 595.793 37.564 596.393 37.132C597.017 36.7 597.473 36.124 597.761 35.404C598.049 34.66 598.205 33.856 598.229 32.992C598.301 32.032 598.157 31.288 597.797 30.76C597.437 30.208 596.969 29.812 596.393 29.572C595.841 29.332 595.253 29.224 594.629 29.248ZM606.922 52L607.066 49.624C607.594 49.6 608.05 49.528 608.434 49.408C608.818 49.288 609.118 49.012 609.334 48.58C609.574 48.148 609.718 47.452 609.766 46.492L610.486 32.704C610.534 32.056 610.582 31.432 610.63 30.832C610.702 30.232 610.762 29.776 610.81 29.464C610.426 29.488 609.946 29.512 609.37 29.536C608.794 29.536 608.374 29.548 608.11 29.572L608.254 26.8H618.478L618.37 29.176C617.842 29.2 617.374 29.272 616.966 29.392C616.582 29.512 616.27 29.788 616.03 30.22C615.814 30.628 615.682 31.324 615.634 32.308L614.914 46.096C614.89 46.744 614.842 47.356 614.77 47.932C614.722 48.508 614.674 48.952 614.626 49.264H619.45C620.866 49.264 622.006 48.772 622.87 47.788C623.734 46.804 624.214 45.328 624.31 43.36H626.686L626.038 52H606.922ZM637.214 24.748C639.83 24.748 641.93 25.42 643.514 26.764C645.098 28.108 645.89 30.028 645.89 32.524C645.89 34.708 645.158 36.436 643.694 37.708C642.254 38.98 640.346 39.64 637.97 39.688L637.79 42.316H631.562L631.346 35.152H633.938C635.57 35.152 636.818 34.972 637.682 34.612C638.546 34.228 638.978 33.556 638.978 32.596C638.978 31.948 638.798 31.444 638.438 31.084C638.102 30.7 637.634 30.508 637.034 30.508C636.362 30.508 635.846 30.712 635.486 31.12C635.15 31.504 634.982 32.032 634.982 32.704H628.322C628.274 31.24 628.574 29.908 629.222 28.708C629.894 27.484 630.902 26.524 632.246 25.828C633.59 25.108 635.246 24.748 637.214 24.748ZM634.73 52.288C633.482 52.288 632.474 51.952 631.706 51.28C630.962 50.584 630.59 49.708 630.59 48.652C630.59 47.596 630.962 46.72 631.706 46.024C632.474 45.328 633.482 44.98 634.73 44.98C635.954 44.98 636.938 45.328 637.682 46.024C638.45 46.72 638.834 47.596 638.834 48.652C638.834 49.684 638.45 50.548 637.682 51.244C636.938 51.94 635.954 52.288 634.73 52.288Z" fill="#2F281E"/>
<rect x="318" y="72" width="116" height="8" fill="#2B533C"/>
</svg>
