<svg width="672" height="156" viewBox="0 0 672 156" fill="none" xmlns="http://www.w3.org/2000/svg">
<path d="M462.586 94.1593C463.807 93.6023 464.997 92.7501 466.246 92.5344C477.298 90.6968 488.421 89.4607 499.404 87.0671C508.007 85.1889 516.484 82.1525 524.954 79.2193C534.673 75.8533 544.472 72.7909 553.955 68.2277C562.602 64.06 571.344 59.7949 578.931 51.4634C579.867 50.4327 580.788 49.3687 581.678 48.2381C586.517 42.0572 584.759 34.9301 580.619 29.782C575.277 23.1431 569.049 20.6874 562.809 18.5868C550.948 14.587 539.036 12.8885 527.096 12.1407C506.799 10.8774 486.647 11.8118 466.586 14.8328C449.053 17.4663 431.841 22.2978 414.9 29.1132C406.086 32.6625 397.403 37.0153 389.592 44.5606C387.002 47.0672 384.65 50.485 382.588 54.1361C380.037 58.664 380.588 64.2204 383.506 68.8621C388.381 76.6166 394.422 80.3647 400.383 84.2435C411.479 91.4585 422.907 96.1488 434.456 99.4479C441.072 101.331 447.738 102.307 454.374 103.765C455.989 104.121 457.593 104.74 459.327 105.283C451.851 110.772 443.99 107.779 436.29 106.181C425.438 103.925 414.702 99.98 404.231 93.6289C396.303 88.8217 388.483 83.4818 381.689 74.4759C375.129 65.7753 375.965 53.9461 380.923 46.3514C388.149 35.2756 397.379 30.1109 406.813 25.9396C411.898 23.6878 416.993 21.4698 422.142 19.5799C427.279 17.7023 432.47 16.1756 437.666 14.7058C438.933 14.3404 440.311 14.7798 441.046 14.8136C442.622 14.1315 443.721 13.6623 444.813 13.1707C446.473 12.4375 448.391 12.3742 449.928 12.2434C452.2 12.0435 454.325 8.97152 456.995 11.4792C458.002 12.4222 459.748 10.7003 461.181 10.4045C464.842 9.63716 468.514 8.94912 472.189 8.29524C476.13 7.60177 480.068 6.77121 484.037 6.4076C486.422 6.18917 488.87 6.97296 491.272 6.92495C493.077 6.89158 494.836 6.00364 496.639 5.9361C499.581 5.81987 502.548 6.19376 505.491 6.1003C507.369 6.03953 509.309 4.62564 511.067 5.32703C515.676 7.15268 520.113 5.6849 524.621 5.89335C530.126 6.14208 535.652 6.61816 541.163 7.49537C553.508 9.45252 565.907 11.2005 577.736 19.7186C580.024 21.37 582.287 23.7089 584.175 26.4944C590.22 35.4332 589.827 47.8977 583.617 55.045C575.271 64.6477 565.833 70.3514 555.994 74.3881C543.373 79.5715 530.608 83.9864 517.947 88.9665C506.092 93.633 494.009 96.2785 481.706 96.9142C476.027 97.2024 470.288 96.4424 464.568 96.0814C463.954 96.0399 463.335 95.4957 462.717 95.1801C462.676 94.8397 462.634 94.4993 462.592 94.1589L462.586 94.1593Z" fill="#F3845C"/>
<path d="M128.654 72.448C124.43 72.448 120.547 71.4667 117.006 69.504C113.464 67.4987 110.648 64.7467 108.558 61.248C106.51 57.7067 105.486 53.7173 105.486 49.28C105.486 44.8427 106.51 40.8747 108.558 37.376C110.648 33.8347 113.464 31.0827 117.006 29.12C120.547 27.1573 124.43 26.176 128.654 26.176C132.92 26.176 136.803 27.1573 140.302 29.12C143.843 31.0827 146.638 33.8347 148.686 37.376C150.734 40.8747 151.758 44.8427 151.758 49.28C151.758 53.7173 150.734 57.7067 148.686 61.248C146.638 64.7467 143.843 67.4987 140.302 69.504C136.76 71.4667 132.878 72.448 128.654 72.448ZM128.654 60.8C131.854 60.8 134.371 59.7547 136.206 57.664C138.083 55.5733 139.022 52.7787 139.022 49.28C139.022 45.696 138.083 42.88 136.206 40.832C134.371 38.7413 131.854 37.696 128.654 37.696C125.411 37.696 122.872 38.7413 121.038 40.832C119.203 42.88 118.286 45.696 118.286 49.28C118.286 52.8213 119.203 55.6373 121.038 57.728C122.872 59.776 125.411 60.8 128.654 60.8ZM167.599 54.208C167.599 50.6667 168.324 47.5093 169.775 44.736C171.268 41.92 173.231 39.7227 175.663 38.144C178.137 36.5653 180.825 35.776 183.727 35.776C187.908 35.776 191.151 37.0987 193.455 39.744V36.096H205.999V89.152H193.455V67.776C190.809 70.8907 187.545 72.448 183.663 72.448C180.761 72.448 178.073 71.68 175.599 70.144C173.167 68.608 171.225 66.4533 169.775 63.68C168.324 60.9067 167.599 57.7493 167.599 54.208ZM193.455 54.016C193.455 51.6267 192.772 49.8133 191.407 48.576C190.084 47.296 188.591 46.656 186.927 46.656C185.263 46.656 183.748 47.3173 182.383 48.64C181.06 49.92 180.399 51.776 180.399 54.208C180.399 56.64 181.06 58.4747 182.383 59.712C183.705 60.9067 185.22 61.504 186.927 61.504C188.591 61.504 190.084 60.864 191.407 59.584C192.772 58.304 193.455 56.448 193.455 54.016ZM249.883 36.096V72H237.275V66.88C236.208 68.5013 234.736 69.824 232.859 70.848C230.981 71.8293 228.827 72.32 226.395 72.32C222.213 72.32 218.907 70.9547 216.475 68.224C214.085 65.4507 212.891 61.696 212.891 56.96V36.096H225.371V55.36C225.371 57.408 225.904 59.0293 226.971 60.224C228.08 61.376 229.531 61.952 231.323 61.952C233.157 61.952 234.608 61.376 235.675 60.224C236.741 59.0293 237.275 57.408 237.275 55.36V36.096H249.883ZM291.326 53.632C291.326 54.6133 291.262 55.5947 291.134 56.576H267.39C267.518 58.5387 268.051 60.0107 268.99 60.992C269.971 61.9307 271.208 62.4 272.702 62.4C274.792 62.4 276.286 61.4613 277.182 59.584H290.558C290.003 62.0587 288.915 64.2773 287.294 66.24C285.715 68.16 283.71 69.6747 281.278 70.784C278.846 71.8933 276.158 72.448 273.214 72.448C269.672 72.448 266.515 71.7013 263.742 70.208C261.011 68.7147 258.856 66.5813 257.278 63.808C255.742 61.0347 254.974 57.7707 254.974 54.016C254.974 50.2613 255.742 47.0187 257.278 44.288C258.814 41.5147 260.947 39.3813 263.678 37.888C266.451 36.3947 269.63 35.648 273.214 35.648C276.755 35.648 279.891 36.3733 282.622 37.824C285.352 39.2747 287.486 41.3653 289.022 44.096C290.558 46.784 291.326 49.9627 291.326 53.632ZM278.526 50.496C278.526 48.96 278.014 47.7653 276.99 46.912C275.966 46.016 274.686 45.568 273.15 45.568C271.614 45.568 270.355 45.9947 269.374 46.848C268.392 47.6587 267.752 48.8747 267.454 50.496H278.526ZM343.013 53.632C343.013 54.6133 342.949 55.5947 342.821 56.576H319.077C319.205 58.5387 319.738 60.0107 320.677 60.992C321.658 61.9307 322.896 62.4 324.389 62.4C326.48 62.4 327.973 61.4613 328.869 59.584H342.245C341.69 62.0587 340.602 64.2773 338.981 66.24C337.402 68.16 335.397 69.6747 332.965 70.784C330.533 71.8933 327.845 72.448 324.901 72.448C321.36 72.448 318.202 71.7013 315.429 70.208C312.698 68.7147 310.544 66.5813 308.965 63.808C307.429 61.0347 306.661 57.7707 306.661 54.016C306.661 50.2613 307.429 47.0187 308.965 44.288C310.501 41.5147 312.634 39.3813 315.365 37.888C318.138 36.3947 321.317 35.648 324.901 35.648C328.442 35.648 331.578 36.3733 334.309 37.824C337.04 39.2747 339.173 41.3653 340.709 44.096C342.245 46.784 343.013 49.9627 343.013 53.632ZM330.213 50.496C330.213 48.96 329.701 47.7653 328.677 46.912C327.653 46.016 326.373 45.568 324.837 45.568C323.301 45.568 322.042 45.9947 321.061 46.848C320.08 47.6587 319.44 48.8747 319.141 50.496H330.213ZM332.645 27.072L316.645 33.344V24.832L332.645 17.6V27.072ZM377.101 72.448C373.517 72.448 370.295 71.7013 367.437 70.208C364.621 68.7147 362.402 66.5813 360.781 63.808C359.159 61.0347 358.349 57.7707 358.349 54.016C358.349 50.304 359.159 47.0613 360.781 44.288C362.445 41.5147 364.685 39.3813 367.501 37.888C370.359 36.3947 373.581 35.648 377.165 35.648C380.749 35.648 383.949 36.3947 386.765 37.888C389.623 39.3813 391.863 41.5147 393.485 44.288C395.149 47.0613 395.981 50.304 395.981 54.016C395.981 57.728 395.149 60.992 393.485 63.808C391.863 66.5813 389.623 68.7147 386.765 70.208C383.906 71.7013 380.685 72.448 377.101 72.448ZM377.101 61.568C378.85 61.568 380.301 60.928 381.453 59.648C382.647 58.3253 383.245 56.448 383.245 54.016C383.245 51.584 382.647 49.728 381.453 48.448C380.301 47.168 378.871 46.528 377.165 46.528C375.458 46.528 374.029 47.168 372.877 48.448C371.725 49.728 371.149 51.584 371.149 54.016C371.149 56.4907 371.703 58.368 372.812 59.648C373.922 60.928 375.351 61.568 377.101 61.568ZM435.862 26.176C437.526 26.176 439.318 26.4533 441.238 27.008C443.201 27.52 445.014 28.288 446.678 29.312H446.742L446.678 26.624H451.606L450.838 41.536H446.614C446.23 37.9947 445.185 35.2853 443.478 33.408C441.771 31.488 439.425 30.528 436.438 30.528C434.219 30.528 432.235 31.04 430.486 32.064C428.779 33.088 427.329 34.496 426.134 36.288C424.939 38.0373 424.001 40.0213 423.318 42.24C422.678 44.416 422.294 46.656 422.166 48.96C421.995 52.6293 422.358 55.9147 423.254 58.816C424.193 61.6747 425.622 63.936 427.542 65.6C429.505 67.264 431.915 68.1173 434.774 68.16C437.334 68.2027 440.001 67.6053 442.774 66.368C445.547 65.088 448.022 63.04 450.198 60.224L452.694 62.784C450.475 65.6427 448.171 67.8187 445.782 69.312C443.435 70.7627 441.153 71.744 438.934 72.256C436.715 72.768 434.71 73.024 432.918 73.024C429.633 73.024 426.667 72.448 424.022 71.296C421.419 70.1013 419.201 68.48 417.366 66.432C415.531 64.3413 414.166 61.9307 413.27 59.2C412.374 56.4267 412.011 53.44 412.182 50.24C412.353 47.3387 412.971 44.4587 414.038 41.6C415.147 38.7413 416.683 36.16 418.646 33.856C420.651 31.5093 423.083 29.6533 425.942 28.288C428.843 26.88 432.15 26.176 435.862 26.176ZM476.146 27.072C481.223 27.0293 485.191 27.9893 488.05 29.952C490.951 31.872 492.167 34.7947 491.698 38.72C491.57 39.9573 491.143 41.1733 490.418 42.368C489.692 43.52 488.647 44.5653 487.282 45.504C485.959 46.4427 484.274 47.1893 482.226 47.744V47.808C486.407 48.4907 489.415 49.92 491.25 52.096C493.127 54.2293 494.002 56.6187 493.874 59.264C493.746 62.0373 492.956 64.384 491.506 66.304C490.098 68.1813 488.199 69.6107 485.81 70.592C483.463 71.5307 480.796 72 477.81 72H456.178L456.434 67.776C457.372 67.7333 458.183 67.6053 458.866 67.392C459.548 67.1787 460.082 66.688 460.466 65.92C460.892 65.152 461.148 63.9147 461.234 62.208L462.514 37.696C462.599 36.544 462.684 35.4347 462.77 34.368C462.898 33.3013 463.004 32.4907 463.09 31.936C462.407 31.9787 461.554 32.0213 460.53 32.064C459.506 32.064 458.759 32.0853 458.29 32.128L458.546 27.2C461.49 27.1573 464.412 27.136 467.314 27.136C470.258 27.136 473.202 27.1147 476.146 27.072ZM476.082 51.328C475.015 51.328 474.098 51.328 473.33 51.328C472.562 51.328 471.751 51.3493 470.898 51.392L470.385 61.824C470.343 62.976 470.258 64.064 470.13 65.088C470.002 66.112 469.895 66.9013 469.81 67.456C470.578 67.456 471.303 67.456 471.986 67.456C472.668 67.456 473.351 67.456 474.034 67.456C474.716 67.4133 475.399 67.392 476.082 67.392C478.684 67.264 480.604 66.432 481.842 64.896C483.122 63.36 483.826 61.4187 483.954 59.072C484.082 57.1093 483.762 55.5733 482.994 54.464C482.268 53.312 481.287 52.5013 480.05 52.032C478.812 51.5627 477.49 51.328 476.082 51.328ZM475.698 31.552C475.015 31.552 474.375 31.6587 473.778 31.872C473.18 32.0853 472.69 32.576 472.306 33.344C471.964 34.0693 471.751 35.264 471.666 36.928L471.154 46.848C471.708 46.848 472.263 46.848 472.818 46.848C473.372 46.8053 473.927 46.784 474.482 46.784C476.316 46.7413 477.767 46.336 478.834 45.568C479.943 44.8 480.754 43.776 481.266 42.496C481.778 41.1733 482.055 39.744 482.098 38.208C482.226 36.5013 481.97 35.1787 481.33 34.24C480.69 33.2587 479.858 32.5547 478.834 32.128C477.852 31.7013 476.807 31.5093 475.698 31.552ZM497.553 72L497.809 67.776C498.747 67.7333 499.558 67.6053 500.241 67.392C500.923 67.1787 501.457 66.688 501.841 65.92C502.267 65.152 502.523 63.9147 502.609 62.208L503.889 37.696C503.974 36.544 504.059 35.4347 504.145 34.368C504.273 33.3013 504.379 32.4907 504.465 31.936C503.782 31.9787 502.929 32.0213 501.905 32.064C500.881 32.064 500.134 32.0853 499.665 32.128L499.921 27.2H518.097L517.905 31.424C516.966 31.4667 516.134 31.5947 515.409 31.808C514.726 32.0213 514.171 32.512 513.745 33.28C513.361 34.0053 513.126 35.2427 513.041 36.992L511.76 61.504C511.718 62.656 511.633 63.744 511.505 64.768C511.419 65.792 511.334 66.5813 511.249 67.136H519.825C522.342 67.136 524.369 66.2613 525.905 64.512C527.441 62.7627 528.294 60.1387 528.465 56.64H532.689L531.537 72H497.553ZM551.405 23.552C556.056 23.552 559.789 24.7467 562.605 27.136C565.421 29.5253 566.829 32.9387 566.829 37.376C566.829 41.2587 565.528 44.3307 562.925 46.592C560.365 48.8533 556.973 50.0267 552.749 50.112L552.429 54.784H541.357L540.973 42.048H545.581C548.482 42.048 550.701 41.728 552.237 41.088C553.773 40.4053 554.541 39.2107 554.541 37.504C554.541 36.352 554.221 35.456 553.581 34.816C552.984 34.1333 552.152 33.792 551.085 33.792C549.89 33.792 548.973 34.1547 548.333 34.88C547.736 35.5627 547.437 36.5013 547.437 37.696H535.597C535.512 35.0933 536.045 32.7253 537.197 30.592C538.392 28.416 540.184 26.7093 542.573 25.472C544.962 24.192 547.906 23.552 551.405 23.552ZM546.989 72.512C544.77 72.512 542.978 71.9147 541.613 70.72C540.29 69.4827 539.629 67.9253 539.629 66.048C539.629 64.1707 540.29 62.6133 541.613 61.376C542.978 60.1387 544.77 59.52 546.989 59.52C549.165 59.52 550.914 60.1387 552.237 61.376C553.602 62.6133 554.285 64.1707 554.285 66.048C554.285 67.8827 553.602 69.4187 552.237 70.656C550.914 71.8933 549.165 72.512 546.989 72.512Z" fill="#F1EDE4"/>
</svg>
