<svg width="306" height="189" viewBox="0 0 306 189" fill="none" xmlns="http://www.w3.org/2000/svg">
<g clip-path="url(#clip0_289_4937)">
<rect x="-5" y="-7.77783" width="311.315" height="196.013" fill="#E9E0F3"/>
<path opacity="0.2" d="M71.7457 -26.6436C61.5272 -22.1019 57.019 -15.7319 56.5162 -8.23145C55.9463 0.272251 60.2103 13.6462 75.8453 32.0244C85.1997 43.0199 90.3062 54.0738 91.5475 65.125C92.4718 73.3552 91.1793 80.9391 88.6588 87.7588C96.1491 86.6292 103.214 86.3033 109.584 85.9609C126.69 85.0414 137.592 83.9192 147.026 74.1484C157.258 63.5506 161.078 50.0792 161.338 34.2949C161.602 18.1773 158.165 1.1011 154.943 -16.0234L166.274 -18.1553L177.606 -20.2871C180.675 -3.97433 184.706 15.6988 184.394 34.6738C184.077 53.9818 179.275 73.9477 163.616 90.166C152.54 101.638 139.874 105.791 127.785 107.551C124.928 113.499 123.837 119.129 124.353 123.734C124.963 129.171 127.912 134.586 136.495 138.578C147.084 143.503 160.291 146.672 172.296 148.953C178.275 150.089 183.595 150.943 188.207 151.742C189.762 152.012 191.461 152.309 193.136 152.645C199.325 147.711 206.42 144.108 212.957 141.133C223.617 136.281 232.494 133.14 241.074 128.364C249.164 123.861 254.458 119.125 257.198 113.117C259.855 107.289 259.019 103.965 257.188 100.954C254.7 96.8617 249.842 92.7258 242.518 87.5068C235.967 82.8389 227.021 77.0539 220.274 70.6328C213.266 63.9633 206.58 54.7901 206.58 42.3779C206.58 31.5111 212.548 23.6274 219.966 18.3301C227.042 13.277 236.26 9.89173 245.624 7.33105C264.061 2.28939 288.835 -0.885654 308.765 -4.69043L313.089 17.96C290.742 22.2262 269.108 24.8164 251.706 29.5752C243.15 31.9147 237.089 34.4391 233.368 37.0967C229.989 39.5095 229.64 41.1385 229.64 42.3779C229.64 45.7172 231.255 49.2484 236.172 53.9277C241.349 58.8554 247.953 63.0639 255.9 68.7266C263.074 73.8381 271.662 80.3709 276.893 88.9756C282.781 98.6613 283.935 110.065 278.18 122.685C272.507 135.125 262.322 142.929 252.289 148.514C242.744 153.827 230.848 158.326 222.509 162.121C213.183 166.366 206.854 170.248 203.188 174.94C200.129 178.855 198.027 184.502 200.311 195.01C202.809 206.498 207.183 213.996 212.064 218.947C216.951 223.905 222.933 226.905 229.58 228.462C243.301 231.677 259.067 228.506 269.419 224.264L273.791 234.933L278.164 245.602C265.071 250.967 244.228 255.579 224.32 250.915C214.152 248.533 204.063 243.678 195.642 235.136C187.216 226.587 181.045 214.94 177.777 199.908C175.606 189.921 175.856 181.126 178.288 173.444C175.151 172.91 171.644 172.303 167.991 171.608C155.597 169.254 140.062 165.669 126.77 159.487C111.472 152.373 103.011 140.354 101.436 126.304C100.804 120.663 101.312 114.988 102.676 109.472C89.2508 110.419 76.9821 112.425 64.5319 121.118C61.0223 124.531 57.7788 127.487 55.2623 129.898C49.8502 136.955 46.9939 145.541 46.2076 154.833C45.057 168.432 48.4689 182.82 54.2574 193.818L33.8512 204.559C26.1882 189.999 21.6767 171.237 23.2291 152.889C23.7564 146.658 24.9983 140.397 27.0905 134.346L-38.5355 57.9629L-21.0433 42.9355L39.2194 113.077C42.1703 109.653 45.5732 106.454 49.4694 103.551C55.6278 97.5335 61.416 91.2014 65.1823 83.9219C67.9744 78.525 69.2497 73.2133 68.6305 67.6992C68.0101 62.1759 65.3577 55.2851 58.2819 46.9678C41.0564 26.7203 32.3481 7.52057 33.5074 -9.77441C34.7342 -28.0723 46.6566 -40.7273 62.3805 -47.7158L71.7457 -26.6436Z" fill="#A47DD0"/>
<path d="M157.142 60.4177C182.256 60.4177 202.45 80.7415 202.45 105.725C202.45 123.849 191.9 139.318 176.56 146.567V176.923H131.252V157.506H124.78C117.595 157.506 111.835 151.745 111.835 144.561V125.143H102.126C99.4074 125.143 97.854 121.907 99.4074 119.9L111.835 103.525C112.405 91.8955 117.428 80.9317 125.864 72.9061C134.299 64.8805 145.499 60.4087 157.142 60.4177ZM139.796 88.8321H152.288C152.353 86.8904 152.935 85.4017 154.1 84.3661C155.299 83.3722 156.815 82.8436 158.372 82.8774C160.379 82.8774 162.061 83.5246 163.226 84.6897C164.392 85.9195 164.909 87.6023 164.909 89.5441C164.909 91.6153 164.456 93.3629 163.421 94.8516C162.515 96.3403 161.155 97.6348 159.472 98.6704C156.171 100.871 153.906 102.813 152.676 104.56C151.382 106.243 150.67 108.962 150.67 112.198H163.615C163.615 110.191 163.874 108.573 164.456 107.408C165.039 106.179 166.139 105.078 167.757 104.043C170.67 102.489 173.065 100.612 174.942 98.0231C176.819 95.4341 177.79 92.7804 177.79 89.5441C177.79 84.625 176.042 80.6767 172.547 77.7641C169.117 74.8515 164.392 73.3628 158.372 73.3628C152.741 73.3628 148.21 74.6573 144.715 77.1816C141.349 79.8353 139.666 83.5246 139.731 88.6379L139.796 88.8321ZM150.67 131.616H163.615V118.67H150.67V131.616ZM157.142 47.4727C127.433 47.4727 102.838 69.6087 99.2779 98.6056L89.1808 112.198H88.9866L88.8571 112.392C85.2973 117.311 84.8442 123.784 87.6274 129.156C89.9575 133.622 94.0999 136.729 98.8896 137.7V144.561C98.8896 156.535 107.174 166.697 118.307 169.609V189.868H189.505V154.269C205.686 143.46 215.395 125.531 215.395 105.725C215.395 73.557 189.246 47.4727 157.142 47.4727Z" fill="#A47DD0"/>
<rect x="196" y="16" width="96" height="26" rx="5" fill="white"/>
<rect x="196" y="16" width="96" height="26" rx="5" fill="#A47DD0"/>
<path d="M216.29 25.032V28.76H220.354V29.96H216.29V33.8H220.834V35H214.834V23.832H220.834V25.032H216.29ZM227.309 26.072C228.375 26.072 229.239 26.3973 229.901 27.048C230.562 27.688 230.893 28.616 230.893 29.832V35H229.453V30.04C229.453 29.1653 229.234 28.4987 228.797 28.04C228.359 27.5707 227.762 27.336 227.005 27.336C226.237 27.336 225.623 27.576 225.165 28.056C224.717 28.536 224.493 29.2347 224.493 30.152V35H223.037V26.232H224.493V27.48C224.781 27.032 225.17 26.6853 225.661 26.44C226.162 26.1947 226.711 26.072 227.309 26.072ZM236.887 26.088C237.644 26.088 238.306 26.2533 238.871 26.584C239.447 26.9147 239.874 27.3307 240.151 27.832V26.232H241.623V35.192C241.623 35.992 241.452 36.7013 241.111 37.32C240.77 37.9493 240.279 38.44 239.639 38.792C239.01 39.144 238.274 39.32 237.431 39.32C236.279 39.32 235.319 39.048 234.551 38.504C233.783 37.96 233.33 37.2187 233.191 36.28H234.631C234.791 36.8133 235.122 37.24 235.623 37.56C236.124 37.8907 236.727 38.056 237.431 38.056C238.231 38.056 238.882 37.8053 239.383 37.304C239.895 36.8027 240.151 36.0987 240.151 35.192V33.352C239.863 33.864 239.436 34.2907 238.871 34.632C238.306 34.9733 237.644 35.144 236.887 35.144C236.108 35.144 235.399 34.952 234.759 34.568C234.13 34.184 233.634 33.6453 233.271 32.952C232.908 32.2587 232.727 31.4693 232.727 30.584C232.727 29.688 232.908 28.904 233.271 28.232C233.634 27.5493 234.13 27.0213 234.759 26.648C235.399 26.2747 236.108 26.088 236.887 26.088ZM240.151 30.6C240.151 29.9387 240.018 29.3627 239.751 28.872C239.484 28.3813 239.122 28.008 238.663 27.752C238.215 27.4853 237.719 27.352 237.175 27.352C236.631 27.352 236.135 27.48 235.687 27.736C235.239 27.992 234.882 28.3653 234.615 28.856C234.348 29.3467 234.215 29.9227 234.215 30.584C234.215 31.256 234.348 31.8427 234.615 32.344C234.882 32.8347 235.239 33.2133 235.687 33.48C236.135 33.736 236.631 33.864 237.175 33.864C237.719 33.864 238.215 33.736 238.663 33.48C239.122 33.2133 239.484 32.8347 239.751 32.344C240.018 31.8427 240.151 31.2613 240.151 30.6ZM243.54 30.584C243.54 29.688 243.721 28.904 244.084 28.232C244.446 27.5493 244.942 27.0213 245.572 26.648C246.212 26.2747 246.921 26.088 247.7 26.088C248.468 26.088 249.134 26.2533 249.7 26.584C250.265 26.9147 250.686 27.3307 250.964 27.832V26.232H252.436V35H250.964V33.368C250.676 33.88 250.244 34.3067 249.668 34.648C249.102 34.9787 248.441 35.144 247.684 35.144C246.905 35.144 246.201 34.952 245.572 34.568C244.942 34.184 244.446 33.6453 244.084 32.952C243.721 32.2587 243.54 31.4693 243.54 30.584ZM250.964 30.6C250.964 29.9387 250.83 29.3627 250.564 28.872C250.297 28.3813 249.934 28.008 249.476 27.752C249.028 27.4853 248.532 27.352 247.988 27.352C247.444 27.352 246.948 27.48 246.5 27.736C246.052 27.992 245.694 28.3653 245.428 28.856C245.161 29.3467 245.028 29.9227 245.028 30.584C245.028 31.256 245.161 31.8427 245.428 32.344C245.694 32.8347 246.052 33.2133 246.5 33.48C246.948 33.736 247.444 33.864 247.988 33.864C248.532 33.864 249.028 33.736 249.476 33.48C249.934 33.2133 250.297 32.8347 250.564 32.344C250.83 31.8427 250.964 31.2613 250.964 30.6ZM258.512 26.088C259.269 26.088 259.931 26.2533 260.496 26.584C261.072 26.9147 261.499 27.3307 261.776 27.832V26.232H263.248V35.192C263.248 35.992 263.077 36.7013 262.736 37.32C262.395 37.9493 261.904 38.44 261.264 38.792C260.635 39.144 259.899 39.32 259.056 39.32C257.904 39.32 256.944 39.048 256.176 38.504C255.408 37.96 254.955 37.2187 254.816 36.28H256.256C256.416 36.8133 256.747 37.24 257.248 37.56C257.749 37.8907 258.352 38.056 259.056 38.056C259.856 38.056 260.507 37.8053 261.008 37.304C261.52 36.8027 261.776 36.0987 261.776 35.192V33.352C261.488 33.864 261.061 34.2907 260.496 34.632C259.931 34.9733 259.269 35.144 258.512 35.144C257.733 35.144 257.024 34.952 256.384 34.568C255.755 34.184 255.259 33.6453 254.896 32.952C254.533 32.2587 254.352 31.4693 254.352 30.584C254.352 29.688 254.533 28.904 254.896 28.232C255.259 27.5493 255.755 27.0213 256.384 26.648C257.024 26.2747 257.733 26.088 258.512 26.088ZM261.776 30.6C261.776 29.9387 261.643 29.3627 261.376 28.872C261.109 28.3813 260.747 28.008 260.288 27.752C259.84 27.4853 259.344 27.352 258.8 27.352C258.256 27.352 257.76 27.48 257.312 27.736C256.864 27.992 256.507 28.3653 256.24 28.856C255.973 29.3467 255.84 29.9227 255.84 30.584C255.84 31.256 255.973 31.8427 256.24 32.344C256.507 32.8347 256.864 33.2133 257.312 33.48C257.76 33.736 258.256 33.864 258.8 33.864C259.344 33.864 259.84 33.736 260.288 33.48C260.747 33.2133 261.109 32.8347 261.376 32.344C261.643 31.8427 261.776 31.2613 261.776 30.6ZM273.709 30.28C273.709 30.5573 273.693 30.8507 273.661 31.16H266.653C266.706 32.024 266.999 32.7013 267.533 33.192C268.077 33.672 268.733 33.912 269.501 33.912C270.13 33.912 270.653 33.768 271.069 33.48C271.495 33.1813 271.794 32.7867 271.965 32.296H273.533C273.298 33.1387 272.829 33.8267 272.125 34.36C271.421 34.8827 270.546 35.144 269.501 35.144C268.669 35.144 267.922 34.9573 267.261 34.584C266.61 34.2107 266.098 33.6827 265.725 33C265.351 32.3067 265.165 31.5067 265.165 30.6C265.165 29.6933 265.346 28.8987 265.709 28.216C266.071 27.5333 266.578 27.0107 267.229 26.648C267.89 26.2747 268.647 26.088 269.501 26.088C270.333 26.088 271.069 26.2693 271.709 26.632C272.349 26.9947 272.839 27.496 273.181 28.136C273.533 28.7653 273.709 29.48 273.709 30.28ZM272.205 29.976C272.205 29.4213 272.082 28.9467 271.837 28.552C271.591 28.1467 271.255 27.8427 270.829 27.64C270.413 27.4267 269.949 27.32 269.437 27.32C268.701 27.32 268.071 27.5547 267.549 28.024C267.037 28.4933 266.743 29.144 266.669 29.976H272.205Z" fill="white"/>
</g>
<defs>
<clipPath id="clip0_289_4937">
<rect width="311.315" height="196.013" fill="white" transform="translate(-5 -7.77783)"/>
</clipPath>
</defs>
</svg>
