<svg width="32" height="36" viewBox="0 0 32 36" fill="none" xmlns="http://www.w3.org/2000/svg">
<path d="M17.6136 3.19697C23.8158 3.19697 28.803 8.21621 28.803 14.3864C28.803 18.8621 26.1975 22.6825 22.4091 24.4728V31.9697H11.2197V27.1742H9.62122C7.8469 27.1742 6.42425 25.7516 6.42425 23.9773V19.1818H4.02652C3.35516 19.1818 2.97152 18.3826 3.35516 17.887L6.42425 13.8429C6.56508 10.9709 7.8057 8.2632 9.88892 6.28116C11.9721 4.29913 14.7382 3.19475 17.6136 3.19697ZM13.3297 10.2143H16.4148C16.4308 9.73477 16.5746 9.36712 16.8624 9.11136C17.1583 8.86591 17.5329 8.73538 17.9174 8.74371C18.4129 8.74371 18.8285 8.90356 19.1162 9.19129C19.4039 9.495 19.5318 9.91061 19.5318 10.3902C19.5318 10.9017 19.4199 11.3333 19.1642 11.7009C18.9404 12.0686 18.6047 12.3883 18.1891 12.644C17.3739 13.1875 16.8144 13.667 16.5107 14.0986C16.191 14.5142 16.0152 15.1856 16.0152 15.9848H19.2121C19.2121 15.4893 19.2761 15.0897 19.4199 14.802C19.5638 14.4983 19.8355 14.2265 20.2352 13.9708C20.9545 13.5871 21.5459 13.1236 22.0095 12.4842C22.473 11.8448 22.7128 11.1894 22.7128 10.3902C22.7128 9.1753 22.2812 8.20023 21.418 7.48091C20.5708 6.76159 19.4039 6.39394 17.9174 6.39394C16.5267 6.39394 15.4077 6.71364 14.5445 7.33705C13.7133 7.99242 13.2977 8.90356 13.3137 10.1664L13.3297 10.2143ZM16.0152 20.7803H19.2121V17.5833H16.0152V20.7803ZM17.6136 0C10.2766 0 4.20235 5.46682 3.32319 12.628L0.829551 15.9848H0.781597L0.749627 16.0328C-0.129539 17.2477 -0.241434 18.8461 0.445915 20.1729C1.02137 21.2758 2.0444 22.0431 3.22728 22.2829V23.9773C3.22728 26.9345 5.27334 29.4441 8.02273 30.1634V35.1667H25.6061V26.375C29.6023 23.7055 32 19.2777 32 14.3864C32 6.44189 25.5421 0 17.6136 0Z" fill="#FFF7F0"/>
</svg>
