<svg width="173" height="172" viewBox="0 0 173 172" fill="none" xmlns="http://www.w3.org/2000/svg">
<g clip-path="url(#clip0_169_833)">
<rect x="0.705078" width="171.621" height="171.621" rx="26.0032" fill="#5BA26F"/>
<path d="M-32.3188 136.387C-9.78275 129.973 50.0072 116.208 45.4307 69.8186M45.4307 69.8186C40.8541 23.4289 145.413 -13.5216 131.241 -30.8137M45.4307 69.8186C45.9818 70.201 46.5456 70.6002 47.1209 71.0157M104.068 177.602C118.912 137.848 72.1053 89.0591 47.1209 71.0157M47.1209 71.0157C85.3456 63.5525 169.466 75.9294 186.238 103.363" stroke="#96C4A3" stroke-width="26.0032"/>
<g filter="url(#filter0_d_169_833)">
<path d="M118.257 15.8621L27.748 32.5041L35.8134 133.657L106.146 155.889L133.305 142.899L145.417 58.5922L133.305 39.6264L118.257 15.8621Z" fill="#FFF7F0"/>
</g>
<path d="M82.5556 126.111C79.8663 126.396 77.3328 126.175 74.9552 125.45C72.6465 124.718 70.7152 123.597 69.1611 122.088C67.6761 120.571 66.8206 118.744 66.5947 116.607C66.3616 114.4 66.7401 112.373 67.7302 110.525C68.7893 108.67 70.4875 107.584 72.8248 107.267C75.4306 106.852 77.3617 107.311 78.618 108.642C79.936 109.898 80.7242 111.418 80.9826 113.204C81.1099 113.748 81.1065 114.376 80.9725 115.087C80.9074 115.792 80.7353 116.472 80.4561 117.129C80.8737 117.782 81.4383 118.176 82.1497 118.31C82.9301 118.437 83.4927 118.482 83.8375 118.445C85.2856 118.292 86.3233 117.555 86.9507 116.234C87.6398 114.836 87.8313 112.689 87.5253 109.793L83.1427 68.3148C82.946 66.4529 82.791 64.6564 82.6779 62.9252C82.5647 61.1939 82.5297 59.8728 82.5729 58.9618C81.4768 59.1473 80.1049 59.362 78.4572 59.6058C76.8022 59.7807 75.5991 59.9426 74.8479 60.0918L74.0063 52.1271L103.693 48.9904L104.414 55.8173C102.904 56.0465 101.616 56.3918 100.549 56.8532C99.4821 57.3146 98.7039 58.1987 98.2145 59.5055C97.7867 60.7361 97.7221 62.765 98.0209 65.5923L101.223 95.8993C102.272 105.829 101.165 113.163 97.8998 117.901C94.6351 122.639 89.5204 125.376 82.5556 126.111Z" fill="#2B533C"/>
</g>
<defs>
<filter id="filter0_d_169_833" x="27.748" y="15.8621" width="124.169" height="150.688" filterUnits="userSpaceOnUse" color-interpolation-filters="sRGB">
<feFlood flood-opacity="0" result="BackgroundImageFix"/>
<feColorMatrix in="SourceAlpha" type="matrix" values="0 0 0 0 0 0 0 0 0 0 0 0 0 0 0 0 0 0 127 0" result="hardAlpha"/>
<feOffset dx="6.5008" dy="10.6613"/>
<feComposite in2="hardAlpha" operator="out"/>
<feColorMatrix type="matrix" values="0 0 0 0 0 0 0 0 0 0 0 0 0 0 0 0 0 0 0.25 0"/>
<feBlend mode="normal" in2="BackgroundImageFix" result="effect1_dropShadow_169_833"/>
<feBlend mode="normal" in="SourceGraphic" in2="effect1_dropShadow_169_833" result="shape"/>
</filter>
<clipPath id="clip0_169_833">
<rect x="0.705078" width="171.621" height="171.621" rx="26.0032" fill="white"/>
</clipPath>
</defs>
</svg>
