<svg width="306" height="189" viewBox="0 0 306 189" fill="none" xmlns="http://www.w3.org/2000/svg">
<g clip-path="url(#clip0_289_5006)">
<rect x="-5" y="-7.77783" width="311.315" height="196.013" fill="#E9E0F3"/>
<path opacity="0.2" d="M71.7458 -26.6436C61.5274 -22.1019 57.0191 -15.7319 56.5164 -8.23145C55.9464 0.272251 60.2104 13.6462 75.8455 32.0244C85.1998 43.0199 90.3064 54.0738 91.5476 65.125C92.472 73.3552 91.1794 80.9391 88.6589 87.7588C96.1492 86.6292 103.214 86.3033 109.584 85.9609C126.691 85.0414 137.592 83.9192 147.026 74.1484C157.258 63.5506 161.078 50.0792 161.338 34.2949C161.602 18.1773 158.165 1.1011 154.943 -16.0234L166.274 -18.1553L177.606 -20.2871C180.675 -3.97433 184.706 15.6988 184.394 34.6738C184.077 53.9818 179.275 73.9477 163.616 90.166C152.54 101.638 139.874 105.791 127.785 107.551C124.928 113.499 123.837 119.129 124.353 123.734C124.963 129.171 127.912 134.586 136.495 138.578C147.084 143.503 160.291 146.672 172.296 148.953C178.275 150.089 183.595 150.943 188.207 151.742C189.762 152.012 191.461 152.309 193.136 152.645C199.325 147.711 206.421 144.108 212.957 141.133C223.617 136.281 232.494 133.14 241.074 128.364C249.165 123.861 254.458 119.125 257.198 113.117C259.856 107.289 259.019 103.965 257.188 100.954C254.7 96.8617 249.843 92.7258 242.518 87.5068C235.967 82.8389 227.021 77.0539 220.274 70.6328C213.266 63.9633 206.58 54.7901 206.58 42.3779C206.58 31.5111 212.549 23.6274 219.967 18.3301C227.043 13.277 236.26 9.89173 245.624 7.33105C264.061 2.28939 288.836 -0.885654 308.765 -4.69043L313.09 17.96C290.743 22.2262 269.108 24.8164 251.706 29.5752C243.15 31.9147 237.089 34.4391 233.368 37.0967C229.989 39.5095 229.641 41.1385 229.64 42.3779C229.64 45.7172 231.255 49.2484 236.172 53.9277C241.35 58.8554 247.953 63.0639 255.9 68.7266C263.074 73.8381 271.662 80.3709 276.893 88.9756C282.781 98.6613 283.935 110.065 278.18 122.685C272.508 135.125 262.323 142.929 252.289 148.514C242.744 153.827 230.849 158.326 222.51 162.121C213.183 166.366 206.854 170.248 203.188 174.94C200.129 178.855 198.027 184.502 200.311 195.01C202.809 206.498 207.183 213.996 212.064 218.947C216.952 223.905 222.933 226.905 229.58 228.462C243.302 231.677 259.067 228.506 269.419 224.264L273.791 234.933L278.164 245.602C265.071 250.967 244.228 255.579 224.32 250.915C214.152 248.533 204.063 243.678 195.642 235.136C187.216 226.587 181.045 214.94 177.777 199.908C175.606 189.921 175.856 181.126 178.288 173.444C175.152 172.91 171.645 172.303 167.991 171.608C155.597 169.254 140.062 165.669 126.77 159.487C111.473 152.373 103.012 140.354 101.436 126.304C100.804 120.663 101.312 114.988 102.677 109.472C89.2509 110.419 76.9822 112.425 64.532 121.118C61.0224 124.531 57.7789 127.487 55.2625 129.898C49.8503 136.955 46.994 145.541 46.2078 154.833C45.0571 168.432 48.469 182.82 54.2576 193.818L33.8513 204.559C26.1883 189.999 21.6768 171.237 23.2292 152.889C23.7565 146.658 24.9984 140.397 27.0906 134.346L-38.5354 57.9629L-21.0432 42.9355L39.2195 113.077C42.1704 109.653 45.5733 106.454 49.4695 103.551C55.628 97.5335 61.4162 91.2014 65.1824 83.9219C67.9745 78.525 69.2498 73.2133 68.6306 67.6992C68.0102 62.1759 65.3578 55.2851 58.282 46.9678C41.0566 26.7203 32.3483 7.52057 33.5076 -9.77441C34.7343 -28.0723 46.6567 -40.7273 62.3806 -47.7158L71.7458 -26.6436Z" fill="#A47DD0"/>
<path d="M157.142 60.4177C182.256 60.4177 202.45 80.7415 202.45 105.725C202.45 123.849 191.9 139.318 176.56 146.567V176.923H131.252V157.506H124.78C117.595 157.506 111.835 151.745 111.835 144.561V125.143H102.126C99.4074 125.143 97.854 121.907 99.4074 119.9L111.835 103.525C112.405 91.8955 117.428 80.9317 125.864 72.9061C134.299 64.8805 145.499 60.4087 157.142 60.4177ZM139.796 88.8321H152.288C152.353 86.8904 152.935 85.4017 154.1 84.3661C155.299 83.3722 156.815 82.8436 158.372 82.8774C160.379 82.8774 162.061 83.5246 163.226 84.6897C164.392 85.9195 164.909 87.6023 164.909 89.5441C164.909 91.6153 164.456 93.3629 163.421 94.8516C162.515 96.3403 161.155 97.6348 159.472 98.6704C156.171 100.871 153.906 102.813 152.676 104.56C151.382 106.243 150.67 108.962 150.67 112.198H163.615C163.615 110.191 163.874 108.573 164.456 107.408C165.039 106.179 166.139 105.078 167.757 104.043C170.67 102.489 173.065 100.612 174.942 98.0231C176.819 95.4341 177.79 92.7804 177.79 89.5441C177.79 84.625 176.042 80.6767 172.547 77.7641C169.117 74.8515 164.392 73.3628 158.372 73.3628C152.741 73.3628 148.21 74.6573 144.715 77.1816C141.349 79.8353 139.666 83.5246 139.731 88.6379L139.796 88.8321ZM150.67 131.616H163.615V118.67H150.67V131.616ZM157.142 47.4727C127.433 47.4727 102.838 69.6087 99.2779 98.6056L89.1808 112.198H88.9866L88.8571 112.392C85.2973 117.311 84.8442 123.784 87.6274 129.156C89.9575 133.622 94.0999 136.729 98.8896 137.7V144.561C98.8896 156.535 107.174 166.697 118.307 169.609V189.868H189.505V154.269C205.686 143.46 215.395 125.531 215.395 105.725C215.395 73.557 189.246 47.4727 157.142 47.4727Z" fill="#A47DD0"/>
</g>
<defs>
<clipPath id="clip0_289_5006">
<rect width="311.315" height="196.013" fill="white" transform="translate(-5 -7.77783)"/>
</clipPath>
</defs>
</svg>
