<svg width="306" height="189" viewBox="0 0 306 189" fill="none" xmlns="http://www.w3.org/2000/svg">
<g clip-path="url(#clip0_289_4983)">
<rect x="-5" y="-7.77783" width="311.315" height="196.013" fill="#CEF0FA"/>
<path opacity="0.2" d="M71.7458 -26.6436C61.5274 -22.1019 57.0191 -15.7319 56.5164 -8.23145C55.9464 0.272251 60.2104 13.6462 75.8455 32.0244C85.1998 43.0199 90.3064 54.0738 91.5476 65.125C92.472 73.3552 91.1794 80.9391 88.6589 87.7588C96.1492 86.6292 103.214 86.3033 109.584 85.9609C126.691 85.0414 137.592 83.9192 147.026 74.1484C157.258 63.5506 161.078 50.0792 161.338 34.2949C161.602 18.1773 158.165 1.1011 154.943 -16.0234L166.274 -18.1553L177.606 -20.2871C180.675 -3.97433 184.706 15.6988 184.394 34.6738C184.077 53.9818 179.275 73.9477 163.616 90.166C152.54 101.638 139.874 105.791 127.785 107.551C124.928 113.499 123.837 119.129 124.353 123.734C124.963 129.171 127.912 134.586 136.495 138.578C147.084 143.503 160.291 146.672 172.296 148.953C178.275 150.089 183.595 150.943 188.207 151.742C189.762 152.012 191.461 152.309 193.136 152.645C199.325 147.711 206.421 144.108 212.957 141.133C223.617 136.281 232.494 133.14 241.074 128.364C249.165 123.861 254.458 119.125 257.198 113.117C259.856 107.289 259.019 103.965 257.188 100.954C254.7 96.8617 249.843 92.7258 242.518 87.5068C235.967 82.8389 227.021 77.0539 220.274 70.6328C213.266 63.9633 206.58 54.7901 206.58 42.3779C206.58 31.5111 212.549 23.6274 219.967 18.3301C227.043 13.277 236.26 9.89173 245.624 7.33105C264.061 2.28939 288.836 -0.885654 308.765 -4.69043L313.09 17.96C290.743 22.2262 269.108 24.8164 251.706 29.5752C243.15 31.9147 237.089 34.4391 233.368 37.0967C229.989 39.5095 229.641 41.1385 229.64 42.3779C229.64 45.7172 231.255 49.2484 236.172 53.9277C241.35 58.8554 247.953 63.0639 255.9 68.7266C263.074 73.8381 271.662 80.3709 276.893 88.9756C282.781 98.6613 283.935 110.065 278.18 122.685C272.508 135.125 262.323 142.929 252.289 148.514C242.744 153.827 230.849 158.326 222.51 162.121C213.183 166.366 206.854 170.248 203.188 174.94C200.129 178.855 198.027 184.502 200.311 195.01C202.809 206.498 207.183 213.996 212.064 218.947C216.952 223.905 222.933 226.905 229.58 228.462C243.302 231.677 259.067 228.506 269.419 224.264L273.791 234.933L278.164 245.602C265.071 250.967 244.228 255.579 224.32 250.915C214.152 248.533 204.063 243.678 195.642 235.136C187.216 226.587 181.045 214.94 177.777 199.908C175.606 189.921 175.856 181.126 178.288 173.444C175.152 172.91 171.645 172.303 167.991 171.608C155.597 169.254 140.062 165.669 126.77 159.487C111.473 152.373 103.012 140.354 101.436 126.304C100.804 120.663 101.312 114.988 102.677 109.472C89.2509 110.419 76.9822 112.425 64.532 121.118C61.0224 124.531 57.7789 127.487 55.2625 129.898C49.8503 136.955 46.994 145.541 46.2078 154.833C45.0571 168.432 48.469 182.82 54.2576 193.818L33.8513 204.559C26.1883 189.999 21.6768 171.237 23.2292 152.889C23.7565 146.658 24.9984 140.397 27.0906 134.346L-38.5354 57.9629L-21.0432 42.9355L39.2195 113.077C42.1704 109.653 45.5733 106.454 49.4695 103.551C55.628 97.5335 61.4162 91.2014 65.1824 83.9219C67.9745 78.525 69.2498 73.2133 68.6306 67.6992C68.0102 62.1759 65.3578 55.2851 58.282 46.9678C41.0566 26.7203 32.3483 7.52057 33.5076 -9.77441C34.7343 -28.0723 46.6567 -40.7273 62.3806 -47.7158L71.7458 -26.6436Z" fill="#55BCDF"/>
<path d="M157.142 60.4177C182.256 60.4177 202.45 80.7415 202.45 105.725C202.45 123.849 191.9 139.318 176.56 146.567V176.923H131.252V157.506H124.78C117.595 157.506 111.835 151.745 111.835 144.561V125.143H102.126C99.4074 125.143 97.854 121.907 99.4074 119.9L111.835 103.525C112.405 91.8955 117.428 80.9317 125.864 72.9061C134.299 64.8805 145.499 60.4087 157.142 60.4177ZM139.796 88.8321H152.288C152.353 86.8904 152.935 85.4017 154.1 84.3661C155.299 83.3722 156.815 82.8436 158.372 82.8774C160.379 82.8774 162.061 83.5246 163.226 84.6897C164.392 85.9195 164.909 87.6023 164.909 89.5441C164.909 91.6153 164.456 93.3629 163.421 94.8516C162.515 96.3403 161.155 97.6348 159.472 98.6704C156.171 100.871 153.906 102.813 152.676 104.56C151.382 106.243 150.67 108.962 150.67 112.198H163.615C163.615 110.191 163.874 108.573 164.456 107.408C165.039 106.179 166.139 105.078 167.757 104.043C170.67 102.489 173.065 100.612 174.942 98.0231C176.819 95.4341 177.79 92.7804 177.79 89.5441C177.79 84.625 176.042 80.6767 172.547 77.7641C169.117 74.8515 164.392 73.3628 158.372 73.3628C152.741 73.3628 148.21 74.6573 144.715 77.1816C141.349 79.8353 139.666 83.5246 139.731 88.6379L139.796 88.8321ZM150.67 131.616H163.615V118.67H150.67V131.616ZM157.142 47.4727C127.433 47.4727 102.838 69.6087 99.2779 98.6056L89.1808 112.198H88.9866L88.8571 112.392C85.2973 117.311 84.8442 123.784 87.6274 129.156C89.9575 133.622 94.0999 136.729 98.8896 137.7V144.561C98.8896 156.535 107.174 166.697 118.307 169.609V189.868H189.505V154.269C205.686 143.46 215.395 125.531 215.395 105.725C215.395 73.557 189.246 47.4727 157.142 47.4727Z" fill="#55BCDF"/>
<rect x="176" y="16" width="116" height="26" rx="5" fill="white"/>
<rect x="176" y="16" width="116" height="26" rx="5" fill="#55BCDF"/>
<path d="M192.407 23.848V35H190.951V23.848H192.407ZM199.16 26.072C200.227 26.072 201.091 26.3973 201.752 27.048C202.414 27.688 202.744 28.616 202.744 29.832V35H201.304V30.04C201.304 29.1653 201.086 28.4987 200.648 28.04C200.211 27.5707 199.614 27.336 198.856 27.336C198.088 27.336 197.475 27.576 197.016 28.056C196.568 28.536 196.344 29.2347 196.344 30.152V35H194.888V26.232H196.344V27.48C196.632 27.032 197.022 26.6853 197.512 26.44C198.014 26.1947 198.563 26.072 199.16 26.072ZM208.387 33.656L211.107 26.232H212.659L209.219 35H207.523L204.083 26.232H205.651L208.387 33.656ZM222.091 30.28C222.091 30.5573 222.075 30.8507 222.043 31.16H215.035C215.089 32.024 215.382 32.7013 215.915 33.192C216.459 33.672 217.115 33.912 217.883 33.912C218.513 33.912 219.035 33.768 219.451 33.48C219.878 33.1813 220.177 32.7867 220.347 32.296H221.915C221.681 33.1387 221.211 33.8267 220.507 34.36C219.803 34.8827 218.929 35.144 217.883 35.144C217.051 35.144 216.305 34.9573 215.643 34.584C214.993 34.2107 214.481 33.6827 214.107 33C213.734 32.3067 213.547 31.5067 213.547 30.6C213.547 29.6933 213.729 28.8987 214.091 28.216C214.454 27.5333 214.961 27.0107 215.611 26.648C216.273 26.2747 217.03 26.088 217.883 26.088C218.715 26.088 219.451 26.2693 220.091 26.632C220.731 26.9947 221.222 27.496 221.563 28.136C221.915 28.7653 222.091 29.48 222.091 30.28ZM220.587 29.976C220.587 29.4213 220.465 28.9467 220.219 28.552C219.974 28.1467 219.638 27.8427 219.211 27.64C218.795 27.4267 218.331 27.32 217.819 27.32C217.083 27.32 216.454 27.5547 215.931 28.024C215.419 28.4933 215.126 29.144 215.051 29.976H220.587ZM227.117 35.144C226.445 35.144 225.843 35.032 225.309 34.808C224.776 34.5733 224.355 34.2533 224.045 33.848C223.736 33.432 223.565 32.9573 223.533 32.424H225.037C225.08 32.8613 225.283 33.2187 225.645 33.496C226.019 33.7733 226.504 33.912 227.101 33.912C227.656 33.912 228.093 33.7893 228.413 33.544C228.733 33.2987 228.893 32.9893 228.893 32.616C228.893 32.232 228.723 31.9493 228.381 31.768C228.04 31.576 227.512 31.3893 226.797 31.208C226.147 31.0373 225.613 30.8667 225.197 30.696C224.792 30.5147 224.44 30.2533 224.141 29.912C223.853 29.56 223.709 29.1013 223.709 28.536C223.709 28.088 223.843 27.6773 224.109 27.304C224.376 26.9307 224.755 26.6373 225.245 26.424C225.736 26.2 226.296 26.088 226.925 26.088C227.896 26.088 228.68 26.3333 229.277 26.824C229.875 27.3147 230.195 27.9867 230.237 28.84H228.781C228.749 28.3813 228.563 28.0133 228.221 27.736C227.891 27.4587 227.443 27.32 226.877 27.32C226.355 27.32 225.939 27.432 225.629 27.656C225.32 27.88 225.165 28.1733 225.165 28.536C225.165 28.824 225.256 29.064 225.437 29.256C225.629 29.4373 225.864 29.5867 226.141 29.704C226.429 29.8107 226.824 29.9333 227.325 30.072C227.955 30.2427 228.467 30.4133 228.861 30.584C229.256 30.744 229.592 30.9893 229.869 31.32C230.157 31.6507 230.307 32.0827 230.317 32.616C230.317 33.096 230.184 33.528 229.917 33.912C229.651 34.296 229.272 34.6 228.781 34.824C228.301 35.0373 227.747 35.144 227.117 35.144ZM234.149 27.432V32.6C234.149 33.0267 234.239 33.3307 234.421 33.512C234.602 33.6827 234.917 33.768 235.365 33.768H236.437V35H235.125C234.314 35 233.706 34.8133 233.301 34.44C232.895 34.0667 232.693 33.4533 232.693 32.6V27.432H231.557V26.232H232.693V24.024H234.149V26.232H236.437V27.432H234.149ZM238.953 24.808C238.675 24.808 238.441 24.712 238.249 24.52C238.057 24.328 237.961 24.0933 237.961 23.816C237.961 23.5387 238.057 23.304 238.249 23.112C238.441 22.92 238.675 22.824 238.953 22.824C239.219 22.824 239.443 22.92 239.625 23.112C239.817 23.304 239.913 23.5387 239.913 23.816C239.913 24.0933 239.817 24.328 239.625 24.52C239.443 24.712 239.219 24.808 238.953 24.808ZM239.657 26.232V35H238.201V26.232H239.657ZM245.754 26.088C246.512 26.088 247.173 26.2533 247.738 26.584C248.314 26.9147 248.741 27.3307 249.018 27.832V26.232H250.49V35.192C250.49 35.992 250.32 36.7013 249.978 37.32C249.637 37.9493 249.146 38.44 248.506 38.792C247.877 39.144 247.141 39.32 246.298 39.32C245.146 39.32 244.186 39.048 243.418 38.504C242.65 37.96 242.197 37.2187 242.058 36.28H243.498C243.658 36.8133 243.989 37.24 244.49 37.56C244.992 37.8907 245.594 38.056 246.298 38.056C247.098 38.056 247.749 37.8053 248.25 37.304C248.762 36.8027 249.018 36.0987 249.018 35.192V33.352C248.73 33.864 248.304 34.2907 247.738 34.632C247.173 34.9733 246.512 35.144 245.754 35.144C244.976 35.144 244.266 34.952 243.626 34.568C242.997 34.184 242.501 33.6453 242.138 32.952C241.776 32.2587 241.594 31.4693 241.594 30.584C241.594 29.688 241.776 28.904 242.138 28.232C242.501 27.5493 242.997 27.0213 243.626 26.648C244.266 26.2747 244.976 26.088 245.754 26.088ZM249.018 30.6C249.018 29.9387 248.885 29.3627 248.618 28.872C248.352 28.3813 247.989 28.008 247.53 27.752C247.082 27.4853 246.586 27.352 246.042 27.352C245.498 27.352 245.002 27.48 244.554 27.736C244.106 27.992 243.749 28.3653 243.482 28.856C243.216 29.3467 243.082 29.9227 243.082 30.584C243.082 31.256 243.216 31.8427 243.482 32.344C243.749 32.8347 244.106 33.2133 244.554 33.48C245.002 33.736 245.498 33.864 246.042 33.864C246.586 33.864 247.082 33.736 247.53 33.48C247.989 33.2133 248.352 32.8347 248.618 32.344C248.885 31.8427 249.018 31.2613 249.018 30.6ZM252.407 30.584C252.407 29.688 252.588 28.904 252.951 28.232C253.313 27.5493 253.809 27.0213 254.439 26.648C255.079 26.2747 255.788 26.088 256.567 26.088C257.335 26.088 258.001 26.2533 258.567 26.584C259.132 26.9147 259.553 27.3307 259.831 27.832V26.232H261.303V35H259.831V33.368C259.543 33.88 259.111 34.3067 258.535 34.648C257.969 34.9787 257.308 35.144 256.551 35.144C255.772 35.144 255.068 34.952 254.439 34.568C253.809 34.184 253.313 33.6453 252.951 32.952C252.588 32.2587 252.407 31.4693 252.407 30.584ZM259.831 30.6C259.831 29.9387 259.697 29.3627 259.431 28.872C259.164 28.3813 258.801 28.008 258.343 27.752C257.895 27.4853 257.399 27.352 256.855 27.352C256.311 27.352 255.815 27.48 255.367 27.736C254.919 27.992 254.561 28.3653 254.295 28.856C254.028 29.3467 253.895 29.9227 253.895 30.584C253.895 31.256 254.028 31.8427 254.295 32.344C254.561 32.8347 254.919 33.2133 255.367 33.48C255.815 33.736 256.311 33.864 256.855 33.864C257.399 33.864 257.895 33.736 258.343 33.48C258.801 33.2133 259.164 32.8347 259.431 32.344C259.697 31.8427 259.831 31.2613 259.831 30.6ZM265.539 27.432V32.6C265.539 33.0267 265.63 33.3307 265.811 33.512C265.993 33.6827 266.307 33.768 266.755 33.768H267.827V35H266.515C265.705 35 265.097 34.8133 264.691 34.44C264.286 34.0667 264.083 33.4533 264.083 32.6V27.432H262.947V26.232H264.083V24.024H265.539V26.232H267.827V27.432H265.539ZM277.591 30.28C277.591 30.5573 277.575 30.8507 277.543 31.16H270.535C270.589 32.024 270.882 32.7013 271.415 33.192C271.959 33.672 272.615 33.912 273.383 33.912C274.013 33.912 274.535 33.768 274.951 33.48C275.378 33.1813 275.677 32.7867 275.847 32.296H277.415C277.181 33.1387 276.711 33.8267 276.007 34.36C275.303 34.8827 274.429 35.144 273.383 35.144C272.551 35.144 271.805 34.9573 271.143 34.584C270.493 34.2107 269.981 33.6827 269.607 33C269.234 32.3067 269.047 31.5067 269.047 30.6C269.047 29.6933 269.229 28.8987 269.591 28.216C269.954 27.5333 270.461 27.0107 271.111 26.648C271.773 26.2747 272.53 26.088 273.383 26.088C274.215 26.088 274.951 26.2693 275.591 26.632C276.231 26.9947 276.722 27.496 277.063 28.136C277.415 28.7653 277.591 29.48 277.591 30.28ZM276.087 29.976C276.087 29.4213 275.965 28.9467 275.719 28.552C275.474 28.1467 275.138 27.8427 274.711 27.64C274.295 27.4267 273.831 27.32 273.319 27.32C272.583 27.32 271.954 27.5547 271.431 28.024C270.919 28.4933 270.626 29.144 270.551 29.976H276.087Z" fill="white"/>
</g>
<defs>
<clipPath id="clip0_289_4983">
<rect width="311.315" height="196.013" fill="white" transform="translate(-5 -7.77783)"/>
</clipPath>
</defs>
</svg>
